<svg width="24" height="24" viewBox="0 0 24 24" fill="none" xmlns="http://www.w3.org/2000/svg">
<g clip-path="url(#clip0_116_135)">
<path d="M10.9912 5.62371C11.0074 5.62353 11.0235 5.62335 11.0402 5.62316C11.0577 5.62307 11.0751 5.62299 11.0931 5.6229C11.1114 5.62277 11.1297 5.62264 11.1486 5.6225C11.2083 5.62216 11.268 5.62205 11.3277 5.62201C11.348 5.62199 11.3684 5.62197 11.3893 5.62195C11.7241 5.62216 12.0509 5.63672 12.3827 5.68421C12.4037 5.68718 12.4248 5.69015 12.4464 5.69321C12.6639 5.72481 12.8788 5.76207 13.0895 5.82545C13.1357 5.83928 13.182 5.85255 13.2283 5.86588C13.6178 5.97956 13.9942 6.11137 14.3487 6.31053C14.3933 6.33551 14.4383 6.3599 14.4833 6.38419C14.8273 6.57076 15.1521 6.78997 15.438 7.05816C15.4762 7.09389 15.515 7.12784 15.555 7.16148C15.7528 7.33404 15.9353 7.52438 16.0956 7.73205C16.1178 7.75951 16.1178 7.75951 16.1405 7.78753C16.8722 8.70684 17.207 9.84901 17.2958 11.0041C17.3005 11.0616 17.3005 11.0616 17.3111 11.1156C17.3206 11.1777 17.3231 11.236 17.3233 11.2988C17.3235 11.3345 17.3235 11.3345 17.3237 11.3709C17.3237 11.3967 17.3237 11.4225 17.3237 11.4483C17.3238 11.4752 17.3239 11.5021 17.3239 11.529C17.324 11.5854 17.3241 11.6418 17.3241 11.6983C17.3241 11.7555 17.3242 11.8127 17.3245 11.8699C17.3272 12.4708 17.3272 12.4708 17.2822 12.7655C17.2785 12.7925 17.2748 12.8195 17.2711 12.8465C17.2596 12.9294 17.2467 13.012 17.2332 13.0945C17.2308 13.1091 17.2284 13.1238 17.2259 13.1389C17.174 13.4505 17.092 13.7474 16.9952 14.0478C16.9891 14.0674 16.983 14.087 16.9768 14.1072C16.7383 14.8775 16.3099 15.5927 15.7511 16.1722C15.7394 16.1845 15.7276 16.1968 15.7155 16.2095C15.5565 16.3748 15.3946 16.5282 15.2099 16.6645C15.1771 16.6889 15.1448 16.714 15.1126 16.7392C14.6188 17.1207 14.0274 17.3993 13.4294 17.5734C13.3946 17.5836 13.36 17.5949 13.3258 17.6072C13.2585 17.6282 13.1919 17.6418 13.1227 17.655C13.0729 17.6648 13.0236 17.676 12.9742 17.6877C12.5257 17.793 12.083 17.8279 11.6228 17.8257C11.5477 17.8254 11.4726 17.8257 11.3975 17.826C11.052 17.8263 10.7111 17.8093 10.3735 17.731C10.321 17.7194 10.2683 17.7121 10.215 17.7049C10.0874 17.6859 9.96502 17.6554 9.84086 17.6208C9.80848 17.6119 9.80848 17.6119 9.77545 17.6028C9.31964 17.4767 9.31964 17.4767 9.15336 17.3977C9.09875 17.3729 9.04297 17.3523 8.98679 17.3313C8.89044 17.2953 8.80244 17.2531 8.71414 17.2004C8.62126 17.1715 8.52346 17.2385 8.44134 17.2805C8.41968 17.2915 8.39801 17.3025 8.3757 17.3138C8.36435 17.3196 8.35301 17.3254 8.34133 17.3314C8.02278 17.4938 7.69989 17.6456 7.36837 17.7799C7.31412 17.8022 7.25991 17.8245 7.20569 17.8469C7.17795 17.8583 7.15022 17.8697 7.12248 17.8811C6.94689 17.9507 6.94689 17.9507 6.77507 18.0287C6.38101 18.0481 6.38101 18.0481 6.27402 17.9536C6.14868 17.8209 6.11495 17.7148 6.1183 17.5338C6.12815 17.4359 6.1629 17.3531 6.20091 17.2632C6.21653 17.2217 6.23208 17.1802 6.24756 17.1388C6.27697 17.0624 6.30827 16.9879 6.34325 16.9139C6.3903 16.8127 6.42669 16.7091 6.46305 16.6038C6.52599 16.4224 6.59924 16.2454 6.67339 16.0682C6.68102 16.0498 6.68864 16.0315 6.6965 16.0126C6.7098 15.9806 6.72329 15.9487 6.73702 15.9169C6.76927 15.8386 6.78274 15.7933 6.75593 15.7129C6.72405 15.6629 6.68748 15.617 6.65067 15.5706C6.27914 15.0881 5.99483 14.5277 5.79899 13.9522C5.79129 13.9296 5.7836 13.907 5.77567 13.8837C5.70423 13.6648 5.65287 13.4416 5.6007 13.2175C5.59117 13.1785 5.58006 13.1399 5.56836 13.1015C5.19971 11.721 5.42608 10.0246 5.99109 8.73119C6.00263 8.70477 6.01408 8.67832 6.02541 8.65181C6.21234 8.21552 6.48022 7.8183 6.79421 7.46411C6.80344 7.45367 6.81267 7.44323 6.82218 7.43248C7.33727 6.85349 8.02008 6.37827 8.74636 6.10526C8.77748 6.09301 8.77748 6.09301 8.80923 6.08051C9.02588 5.9957 9.24408 5.9294 9.46837 5.86838C9.50874 5.85733 9.54902 5.84602 9.58929 5.83463C9.71687 5.79919 9.84209 5.77042 9.97326 5.75246C10.0338 5.74366 10.0938 5.73372 10.154 5.72301C10.3598 5.68666 10.561 5.65646 10.77 5.64929C10.8288 5.6482 10.8288 5.6482 10.8695 5.63634C10.9114 5.62622 10.9482 5.62411 10.9912 5.62371Z" fill="#00B85A"/>
<path d="M13.9522 7.61724C14.0076 7.65138 14.0563 7.68929 14.1053 7.73207C14.1164 7.74078 14.1276 7.74949 14.1391 7.75846C14.599 8.15521 14.543 9.06948 14.589 9.61786C14.5934 9.67047 14.5978 9.72309 14.6023 9.7757C14.6491 10.3317 14.6925 10.8875 14.7177 11.445C14.7192 11.4765 14.7192 11.4765 14.7206 11.5087C14.7438 12.024 14.7594 12.5392 14.7608 13.055C14.761 13.0838 14.761 13.0838 14.7611 13.1131C14.7626 13.47 14.7494 13.8296 14.6735 14.1794C14.6693 14.1993 14.6651 14.2192 14.6608 14.2397C14.5602 14.707 14.3916 15.1796 14.067 15.5407C14.0557 15.5537 14.0445 15.5668 14.0329 15.5802C13.8596 15.7681 13.6367 15.8825 13.3972 15.9617C13.3782 15.968 13.3593 15.9744 13.3397 15.9809C13.078 16.0002 12.8081 16.0176 12.5742 15.8852C12.5559 15.8766 12.5375 15.868 12.5186 15.8591C11.962 15.576 11.6485 14.8652 11.3493 14.3541C11.3029 14.3591 11.3029 14.3591 11.2536 14.3732C11.22 14.4201 11.1933 14.4638 11.1663 14.5144C11.1495 14.5443 11.1326 14.5742 11.1157 14.6041C11.1069 14.6197 11.0982 14.6353 11.0892 14.6513C10.8366 15.0942 10.5297 15.6001 10.067 15.8469C10.0544 15.8542 10.0418 15.8615 10.0288 15.869C9.75921 16.017 9.46525 16.0409 9.16989 15.9689C8.95471 15.9032 8.78039 15.8046 8.61247 15.6555C8.60073 15.6453 8.58899 15.6352 8.57689 15.6247C8.00841 15.098 7.90562 14.1967 7.86606 13.4737C7.86333 13.3689 7.86292 13.2642 7.86285 13.1595C7.86277 13.1295 7.86269 13.0995 7.8626 13.0696C7.86238 12.9734 7.86241 12.8773 7.86247 12.7811C7.86248 12.7646 7.86248 12.7482 7.86249 12.7312C7.86271 12.1613 7.87219 11.593 7.90434 11.0239C7.90629 10.9891 7.90629 10.9891 7.90828 10.9536C8.06395 8.18802 8.06395 8.18802 8.49727 7.78111C8.69003 7.63197 8.88782 7.57428 9.12922 7.5981C9.36584 7.65395 9.54008 7.76169 9.6734 7.96555C9.82266 8.23242 9.84461 8.5039 9.84334 8.80264C9.84333 8.81787 9.84332 8.83311 9.84331 8.8488C9.84273 9.15384 9.82006 9.45553 9.79057 9.75895C9.77713 9.89971 9.76878 10.0407 9.7608 10.1818C9.76 10.1946 9.75921 10.2074 9.75839 10.2205C9.74359 10.3803 9.74359 10.3803 9.80147 10.5239C10.266 10.9529 11.0252 10.995 11.6191 10.9727C12.0172 10.9513 12.4879 10.8381 12.7964 10.5768C12.8608 10.501 12.8661 10.4243 12.8649 10.3278C12.8647 10.3071 12.8646 10.2864 12.8645 10.2651C12.8624 10.2014 12.8624 10.2014 12.8521 10.141C12.8409 10.0575 12.8362 9.97507 12.8326 9.89101C12.8318 9.87437 12.831 9.85773 12.8302 9.84059C12.8277 9.78767 12.8254 9.73475 12.823 9.68183C12.8199 9.6124 12.8167 9.54297 12.8134 9.47354C12.8127 9.45668 12.8119 9.43982 12.8111 9.42245C12.8068 9.33288 12.8012 9.24367 12.7935 9.15432C12.7821 9.015 12.7798 8.87585 12.7791 8.73613C12.7789 8.70638 12.7785 8.67662 12.7779 8.64687C12.772 8.33229 12.8163 8.00435 13.0388 7.7625C13.1016 7.70456 13.1705 7.66016 13.2441 7.61724C13.2566 7.60927 13.2691 7.6013 13.282 7.59309C13.4774 7.48532 13.7607 7.51466 13.9522 7.61724Z" fill="#FCFDFD"/>
<path d="M10.0701 11.4207C10.1002 11.4337 10.1303 11.4469 10.1603 11.4601C10.5235 11.601 10.9226 11.6413 11.3086 11.6423C11.3329 11.6424 11.3572 11.6426 11.3823 11.6427C11.7942 11.6395 12.213 11.5551 12.6052 11.4306C12.7045 11.4006 12.7692 11.389 12.8648 11.4378C12.9536 11.5128 12.978 11.5881 12.9893 11.7013C12.9924 11.7423 12.9951 11.7832 12.9976 11.8242C12.9991 11.8459 13.0006 11.8676 13.0021 11.89C13.0137 12.0651 13.0215 12.2404 13.0269 12.4158C13.0275 12.4344 13.0281 12.4529 13.0287 12.472C13.0292 12.4881 13.0297 12.5042 13.0301 12.5208C13.0327 12.5622 13.0375 12.6035 13.0431 12.6446C13.0553 12.7387 13.0557 12.832 13.0558 12.9267C13.0559 12.9455 13.0559 12.9643 13.056 12.9836C13.0561 13.0232 13.0561 13.0628 13.0561 13.1023C13.0562 13.1622 13.0565 13.2221 13.0569 13.282C13.0584 13.8126 13.0584 13.8126 12.9186 13.9904C12.8995 14.0096 12.8995 14.0096 12.846 14.0156C12.7491 14.0061 12.7183 13.9513 12.658 13.8795C12.5728 13.7648 12.5025 13.6419 12.4318 13.5179C12.4016 13.4656 12.3713 13.4133 12.3409 13.361C12.3335 13.3482 12.326 13.3354 12.3183 13.3221C12.1126 12.9717 11.8908 12.5989 11.4837 12.4661C11.2588 12.4266 11.0871 12.4776 10.9007 12.6005C10.7065 12.7483 10.5759 12.96 10.4534 13.1675C10.374 13.3005 10.2911 13.4314 10.2094 13.563C10.1865 13.5999 10.1639 13.637 10.1414 13.6742C9.97048 13.9525 9.97048 13.9525 9.85642 14.0096C9.78149 14.0196 9.75162 14.017 9.69015 13.9713C9.55018 13.7897 9.56562 13.5621 9.56575 13.3433C9.56575 13.3303 9.56575 13.3173 9.56575 13.304C9.56618 12.9588 9.58361 12.6144 9.60238 12.2698C9.60658 12.1926 9.61037 12.1154 9.61398 12.0382C9.61713 11.9724 9.62077 11.9067 9.62436 11.8409C9.6254 11.8177 9.62643 11.7944 9.62749 11.7705C9.63673 11.6176 9.65742 11.5421 9.77269 11.4378C9.87107 11.3904 9.96572 11.3854 10.0701 11.4207Z" fill="#00B85A"/>
<path d="M18.2393 5.09095C18.3524 5.17151 18.4435 5.26348 18.4881 5.39717C18.5058 5.64925 18.4377 5.7901 18.2781 5.97724C18.1305 6.14444 17.9738 6.30589 17.8038 6.45047C17.7566 6.49172 17.711 6.53436 17.6654 6.57725C17.075 7.13158 17.075 7.13158 16.775 7.12691C16.6818 7.11679 16.6221 7.08886 16.5551 7.02396C16.4802 6.92802 16.4559 6.85487 16.4522 6.73449C16.4508 6.70362 16.4508 6.70362 16.4493 6.67214C16.4727 6.51041 16.5896 6.37763 16.6854 6.25004C16.6973 6.23403 16.7093 6.21803 16.7215 6.20154C16.7921 6.10708 16.8637 6.01365 16.9383 5.92229C16.9764 5.87523 17.0137 5.82757 17.0509 5.77976C17.1549 5.64624 17.2618 5.5156 17.3725 5.38755C17.3961 5.36016 17.4193 5.3325 17.4426 5.30484C17.6584 5.05424 17.9263 4.91659 18.2393 5.09095Z" fill="#FD9407"/>
<path d="M16.0287 4.66264C16.142 4.7306 16.2087 4.83276 16.2488 4.9569C16.288 5.33546 16.2501 6.03053 16.0108 6.33728C15.9946 6.34913 15.9784 6.36097 15.9618 6.37317C15.9479 6.38462 15.9341 6.39606 15.9199 6.40786C15.8366 6.44303 15.7634 6.44868 15.6747 6.43059C15.571 6.37851 15.5175 6.30269 15.481 6.19434C15.4387 6.05931 15.4235 5.92522 15.4115 5.78465C15.4104 5.77185 15.4092 5.75905 15.4081 5.74585C15.3925 5.57084 15.3815 5.3958 15.3792 5.22006C15.3788 5.20223 15.3784 5.1844 15.3779 5.16603C15.3784 5.01432 15.4104 4.87028 15.5073 4.75041C15.5292 4.73302 15.5292 4.73302 15.5515 4.71527C15.5661 4.70319 15.5807 4.6911 15.5958 4.67864C15.7119 4.59866 15.9032 4.60481 16.0287 4.66264Z" fill="#FD9408"/>
<path d="M18.8708 7.33019C18.9837 7.44867 19.0129 7.54921 19.0113 7.71147C18.9985 7.82629 18.9371 7.90218 18.8528 7.97732C18.7352 8.06134 18.64 8.08708 18.4988 8.09813C18.4731 8.10036 18.4731 8.10036 18.4468 8.10264C18.4124 8.10559 18.3779 8.10842 18.3434 8.11114C18.3049 8.11422 18.2664 8.11777 18.2279 8.12146C18.1552 8.12768 18.0825 8.13123 18.0095 8.13401C17.9878 8.13497 17.9661 8.13593 17.9437 8.13691C17.8802 8.13942 17.8167 8.14132 17.7531 8.14263C17.7149 8.14357 17.6766 8.14516 17.6384 8.14677C17.5207 8.14839 17.4364 8.14934 17.3438 8.07122C17.2684 7.99439 17.2383 7.92826 17.2368 7.82062C17.2394 7.72338 17.2505 7.6699 17.3205 7.59813C17.4481 7.50802 17.5778 7.45569 17.7272 7.41392C17.7465 7.40831 17.7658 7.40271 17.7857 7.39693C17.8238 7.38587 17.862 7.37491 17.9002 7.36408C17.9446 7.35147 17.9887 7.33849 18.0329 7.32518C18.629 7.14778 18.629 7.14778 18.8708 7.33019Z" fill="#FD9508"/>
<path d="M10.9091 9.41622C11.002 9.47693 11.0498 9.54072 11.0814 9.64589C11.0895 9.70236 11.0905 9.75756 11.0897 9.81455C11.0896 9.83726 11.0896 9.83726 11.0894 9.86042C11.0856 10.0037 11.0563 10.1178 10.9653 10.2308C10.9005 10.279 10.8356 10.2852 10.7559 10.284C10.6891 10.2725 10.6618 10.234 10.622 10.1818C10.5289 10.0221 10.5208 9.83074 10.5556 9.6509C10.5873 9.54861 10.6289 9.46544 10.7237 9.40905C10.7935 9.39281 10.8397 9.39796 10.9091 9.41622Z" fill="#F5FBF8"/>
<path d="M11.9235 9.39713C12.0268 9.4488 12.0656 9.50733 12.1149 9.60766C12.1631 9.75232 12.1569 9.98265 12.0957 10.1244C12.0537 10.1865 12.0105 10.2436 11.9426 10.2775C11.8604 10.2843 11.8108 10.2881 11.7369 10.2512C11.604 10.0962 11.6012 9.91543 11.6139 9.72071C11.6246 9.60461 11.6534 9.52505 11.7381 9.44378C11.8014 9.39601 11.8434 9.38009 11.9235 9.39713Z" fill="#F6FBF8"/>
<path d="M7.08134 7.15784C7.10029 7.16415 7.11924 7.17047 7.13876 7.17698C7.07399 7.25503 7.00715 7.33015 6.9366 7.40305C6.91584 7.42455 6.91584 7.42455 6.89466 7.44649C6.84994 7.48468 6.81146 7.50304 6.75598 7.52147C6.849 7.3845 6.96295 7.27244 7.08134 7.15784Z" fill="#00B85A"/>
<path d="M9.6268 11.8851C9.63311 11.8851 9.63943 11.8851 9.64594 11.8851C9.64965 11.9421 9.65322 11.9992 9.6567 12.0562C9.65778 12.0725 9.65885 12.0887 9.65995 12.1055C9.66088 12.121 9.66181 12.1365 9.66276 12.1524C9.66411 12.1739 9.66411 12.1739 9.66549 12.1958C9.66508 12.2296 9.66508 12.2296 9.64594 12.2488C9.64155 12.2898 9.63837 12.3309 9.6357 12.372C9.63403 12.397 9.63236 12.422 9.63065 12.4477C9.62896 12.4743 9.62728 12.5009 9.6256 12.5275C9.62385 12.5541 9.6221 12.5808 9.62033 12.6074C9.61603 12.6729 9.61181 12.7383 9.60766 12.8038C9.60134 12.8038 9.59503 12.8038 9.58852 12.8038C9.58596 12.5924 9.59319 12.3831 9.60766 12.1722C9.60951 12.1441 9.61136 12.116 9.61319 12.0879C9.61762 12.0203 9.62218 11.9527 9.6268 11.8851Z" fill="#00B85A"/>
<path d="M14.7177 11.7704C14.724 11.7704 14.7303 11.7704 14.7368 11.7704C14.7368 11.8462 14.7368 11.922 14.7368 12.0001C14.7495 12.0001 14.7621 12.0001 14.7751 12.0001C14.7688 12.1769 14.7625 12.3537 14.756 12.5359C14.7496 12.5359 14.7433 12.5359 14.7368 12.5359C14.7248 12.2806 14.7143 12.026 14.7177 11.7704Z" fill="#00B85A"/>
<path d="M18.3349 5.89478C18.3349 5.95482 18.3282 5.97894 18.2966 6.02875C18.2777 6.03506 18.2587 6.04138 18.2392 6.04789C18.2392 6.06052 18.2392 6.07315 18.2392 6.08616C18.2266 6.08616 18.2139 6.08616 18.2009 6.08616C18.1883 6.11143 18.1757 6.13669 18.1626 6.16272C18.1437 6.1564 18.1247 6.15009 18.1052 6.14358C18.1154 6.13364 18.1256 6.12369 18.136 6.11345C18.2069 6.04352 18.275 5.97461 18.3349 5.89478Z" fill="#FEF3E3"/>
<path d="M18.0478 5.01439C18.0478 5.0207 18.0478 5.02702 18.0478 5.03352C18.0246 5.03667 18.0246 5.03667 18.001 5.03988C17.9703 5.04443 17.9703 5.04443 17.939 5.04907C17.9188 5.05196 17.8986 5.05485 17.8778 5.05782C17.8162 5.07226 17.7745 5.09398 17.7225 5.12922C17.7099 5.11659 17.6972 5.10396 17.6842 5.09094C17.8084 5.02375 17.9071 5.00381 18.0478 5.01439Z" fill="#FCBA59"/>
<path d="M12.0383 10.1818C12.0509 10.1881 12.0635 10.1944 12.0765 10.2009C12.0243 10.2835 12.0243 10.2835 11.9808 10.3157C11.9209 10.3202 11.8668 10.3106 11.8086 10.2966C11.8086 10.2903 11.8086 10.284 11.8086 10.2775C11.8262 10.2743 11.8262 10.2743 11.8443 10.2711C11.8597 10.2681 11.8752 10.265 11.8911 10.2619C11.9065 10.259 11.9218 10.2561 11.9376 10.2532C11.9853 10.2377 12.0062 10.2196 12.0383 10.1818Z" fill="#00B85A"/>
<path d="M6.20093 14.8517C6.27748 14.89 6.27748 14.89 6.31217 14.9558C6.3349 15.0239 6.3349 15.0239 6.31576 15.0813C6.27787 15.0056 6.23997 14.9298 6.20093 14.8517Z" fill="#00B85A"/>
<path d="M14.1436 15.4258C14.1499 15.4447 14.1562 15.4637 14.1627 15.4832C14.1082 15.5408 14.0625 15.5842 13.9905 15.6172C13.9983 15.6082 14.0062 15.5992 14.0143 15.5899C14.0246 15.578 14.0349 15.566 14.0455 15.5538C14.0557 15.542 14.0659 15.5302 14.0765 15.5181C14.1085 15.4806 14.1085 15.4806 14.1436 15.4258Z" fill="#00B85A"/>
<path d="M8.61243 6.16272C8.62507 6.16904 8.6377 6.17535 8.65071 6.18186C8.62545 6.18817 8.60019 6.19449 8.57416 6.201C8.57416 6.21363 8.57416 6.22626 8.57416 6.23927C8.54258 6.25191 8.511 6.26454 8.47846 6.27755C8.46583 6.26492 8.4532 6.25229 8.44019 6.23927C8.46801 6.22594 8.49594 6.21282 8.52392 6.1998C8.54723 6.18881 8.54723 6.18881 8.57102 6.1776C8.58468 6.17269 8.59835 6.16778 8.61243 6.16272Z" fill="#00B85A"/>
<path d="M11.2153 14.3923C11.2345 14.4498 11.2345 14.4498 11.2069 14.5108C11.1921 14.5374 11.1921 14.5374 11.177 14.5646C11.1581 14.5646 11.1392 14.5646 11.1196 14.5646C11.1512 14.5077 11.1828 14.4509 11.2153 14.3923Z" fill="#00B85A"/>
<path d="M11.0047 9.45459C11.067 9.50883 11.0913 9.54428 11.1004 9.62684C11.0815 9.62052 11.0625 9.61421 11.043 9.6077C11.0107 9.53952 11.0107 9.53952 10.9856 9.47373C10.9919 9.46741 10.9982 9.4611 11.0047 9.45459Z" fill="#00B85A"/>
<path d="M6.44982 7.9043C6.45614 7.92956 6.46245 7.95482 6.46896 7.98085C6.44145 8.02391 6.44145 8.02391 6.41154 8.05741C6.39259 8.05109 6.37365 8.04478 6.35413 8.03827C6.3857 7.99406 6.41728 7.94985 6.44982 7.9043Z" fill="#00B85A"/>
<path d="M14.4115 14.9666C14.4179 14.9666 14.4242 14.9666 14.4307 14.9666C14.4331 15.0766 14.4331 15.0766 14.4115 15.1197C14.3926 15.1197 14.3736 15.1197 14.3541 15.1197C14.39 15.0096 14.39 15.0096 14.4115 14.9666Z" fill="#00B85A"/>
<path d="M12.7656 13.933C12.7719 13.9456 12.7782 13.9582 12.7847 13.9713C12.8226 13.9649 12.8605 13.9586 12.8996 13.9521C12.8996 13.9711 12.8996 13.99 12.8996 14.0095C12.8445 14.0131 12.8445 14.0131 12.7847 14.0095C12.7721 13.9906 12.7595 13.9716 12.7465 13.9521C12.7528 13.9458 12.7591 13.9395 12.7656 13.933Z" fill="#00B85A"/>
<path d="M10.0096 13.7416C10.0222 13.7668 10.0348 13.7921 10.0478 13.8181C10.0163 13.8497 9.98468 13.8813 9.95215 13.9138C9.96168 13.8423 9.96889 13.8026 10.0096 13.7416Z" fill="#00B85A"/>
</g>
<defs>
<clipPath id="clip0_116_135">
<rect width="24" height="24" fill="white"/>
</clipPath>
</defs>
</svg>
